<svg width="84" height="90" viewBox="0 0 84 90" fill="none" xmlns="http://www.w3.org/2000/svg">
<circle cx="42" cy="46" r="35" fill="#7DCC74"/>
<path fill-rule="evenodd" clip-rule="evenodd" d="M39.9167 29.3334C37.6155 29.3334 35.75 31.1988 35.75 33.5V43.9167C35.75 46.2179 37.6155 48.0834 39.9167 48.0834H44.0834C46.3846 48.0834 48.25 46.2179 48.25 43.9167V33.5C48.25 31.1988 46.3846 29.3334 44.0834 29.3334H39.9167ZM31.5834 33.5C31.5834 28.8976 35.3143 25.1667 39.9167 25.1667H44.0834C48.6857 25.1667 52.4167 28.8976 52.4167 33.5V43.9167C52.4167 48.5191 48.6857 52.25 44.0834 52.25H39.9167C35.3143 52.25 31.5834 48.5191 31.5834 43.9167V33.5ZM27.4167 37.6667C28.5673 37.6667 29.5 38.5994 29.5 39.75V45.9987C29.503 48.2083 30.3821 50.3265 31.9445 51.8889C33.5068 53.4513 35.6249 54.3303 37.8343 54.3334C37.8338 54.3334 37.8348 54.3334 37.8343 54.3334L46.1642 54.3334C46.1637 54.3334 46.1647 54.3334 46.1642 54.3334C48.3736 54.3303 50.4933 53.4513 52.0556 51.8889C53.6179 50.3266 54.497 48.2085 54.5 45.9991C54.5 45.9986 54.5 45.9996 54.5 45.9991V39.75C54.5 38.5994 55.4328 37.6667 56.5834 37.6667C57.734 37.6667 58.6667 38.5994 58.6667 39.75L58.6667 46.0025C58.6627 49.3158 57.3448 52.4923 55.0019 54.8352C52.659 57.1781 49.4825 58.4961 46.1692 58.5L44.0834 58.5V62.6667H48.25C49.4006 62.6667 50.3334 63.5994 50.3334 64.75C50.3334 65.9006 49.4006 66.8334 48.25 66.8334H35.75C34.5994 66.8334 33.6667 65.9006 33.6667 64.75C33.6667 63.5994 34.5994 62.6667 35.75 62.6667H39.9167V58.5L37.8309 58.5C34.5176 58.4961 31.3411 57.1781 28.9982 54.8352C26.6553 52.4923 25.3373 49.3158 25.3334 46.0025L25.3334 39.75C25.3334 38.5994 26.2661 37.6667 27.4167 37.6667Z" fill="#101828"/>
</svg>
