<svg width="16" height="20" viewBox="0 0 16 20" fill="none" xmlns="http://www.w3.org/2000/svg">
<path fill-rule="evenodd" clip-rule="evenodd" d="M7 2C5.89543 2 5 2.89543 5 4V9C5 10.1046 5.89543 11 7 11H9C10.1046 11 11 10.1046 11 9V4C11 2.89543 10.1046 2 9 2H7ZM3 4C3 1.79086 4.79086 0 7 0H9C11.2091 0 13 1.79086 13 4V9C13 11.2091 11.2091 13 9 13H7C4.79086 13 3 11.2091 3 9V4ZM1 6C1.55228 6 2 6.44772 2 7V9.99937C2.00142 11.06 2.42336 12.0767 3.17333 12.8267C3.92325 13.5766 4.93993 13.9985 6.00046 14C6.00021 14 6.00071 14 6.00046 14L9.9988 14C9.99856 14 9.99905 14 9.9988 14C11.0593 13.9985 12.0768 13.5766 12.8267 12.8267C13.5766 12.0768 13.9985 11.0601 14 9.99954C14 9.9993 14 9.99979 14 9.99954V7C14 6.44772 14.4477 6 15 6C15.5523 6 16 6.44772 16 7L16 10.0012C15.9981 11.5916 15.3655 13.1163 14.2409 14.2409C13.1163 15.3655 11.5916 15.9981 10.0012 16L9 16V18H11C11.5523 18 12 18.4477 12 19C12 19.5523 11.5523 20 11 20H5C4.44772 20 4 19.5523 4 19C4 18.4477 4.44772 18 5 18H7V16L5.9988 16C4.40841 15.9981 2.88369 15.3655 1.75911 14.2409C0.634532 13.1163 0.00190574 11.5916 7.15256e-07 10.0012L0 7C0 6.44772 0.447715 6 1 6Z" fill="#101828"/>
</svg>
