<svg width="11" height="2" viewBox="0 0 11 2" fill="none" xmlns="http://www.w3.org/2000/svg">
<path fill-rule="evenodd" clip-rule="evenodd" d="M0 1C0 0.447715 0.447715 0 1 0H1.00667C1.55895 0 2.00667 0.447715 2.00667 1C2.00667 1.55228 1.55895 2 1.00667 2H1C0.447715 2 0 1.55228 0 1ZM4.00667 1C4.00667 0.447715 4.45439 0 5.00667 0H5.01334C5.56563 0 6.01334 0.447715 6.01334 1C6.01334 1.55228 5.56563 2 5.01334 2H5.00667C4.45439 2 4.00667 1.55228 4.00667 1ZM8.00667 1C8.00667 0.447715 8.45439 0 9.00667 0H9.01334C9.56563 0 10.0133 0.447715 10.0133 1C10.0133 1.55228 9.56563 2 9.01334 2H9.00667C8.45439 2 8.00667 1.55228 8.00667 1Z" fill="#4A5565"/>
</svg>

