<svg width="17" height="14" viewBox="0 0 17 14" fill="none" xmlns="http://www.w3.org/2000/svg">
<path fill-rule="evenodd" clip-rule="evenodd" d="M0 1.66667C0 0.746192 0.746192 0 1.66667 0H15C15.9205 0 16.6667 0.746192 16.6667 1.66667V3.33333C16.6667 4.25381 15.9205 5 15 5V11.6667C15 12.1087 14.8244 12.5326 14.5118 12.8452C14.1993 13.1577 13.7754 13.3333 13.3333 13.3333H3.33333C2.89131 13.3333 2.46738 13.1577 2.15482 12.8452C1.84226 12.5326 1.66667 12.1087 1.66667 11.6667V5C0.746192 5 0 4.25381 0 3.33333V1.66667ZM3.33333 5V11.6667H13.3333V5H3.33333ZM15 3.33333V1.66667H1.66667V3.33333H15ZM5.83333 7.5V6.66667H10.8333V7.5C10.8333 7.96024 10.4602 8.33333 10 8.33333H6.66667C6.20643 8.33333 5.83333 7.96024 5.83333 7.5Z" fill="#4A5565"/>
</svg>
