<svg width="15" height="15" viewBox="0 0 15 15" fill="none" xmlns="http://www.w3.org/2000/svg">
<path fill-rule="evenodd" clip-rule="evenodd" d="M0 1.66667C0 0.746192 0.746192 0 1.66667 0H6.27635C6.77099 0 7.24007 0.219705 7.55672 0.599692L9.14031 2.5H13.3333C14.2538 2.5 15 3.24619 15 4.16667V12.5C15 13.4205 14.2538 14.1667 13.3333 14.1667H1.66667C0.746192 14.1667 0 13.4205 0 12.5V1.66667ZM1.66667 4.16667V12.5H13.3333V4.16667H9.14031C9.06339 4.16667 8.98709 4.16135 8.91189 4.15095C8.85952 4.16126 8.80539 4.16667 8.75 4.16667H1.66667ZM6.9708 2.5H1.66667V1.66667H6.27635L6.9708 2.5Z" fill="#4A5565"/>
</svg>
