<svg width="14" height="17" viewBox="0 0 14 17" fill="none" xmlns="http://www.w3.org/2000/svg">
<path fill-rule="evenodd" clip-rule="evenodd" d="M3.82149 0.488155C4.13405 0.175595 4.55797 0 5 0H8.33333C8.77536 0 9.19928 0.175595 9.51184 0.488155C9.8244 0.800716 10 1.22464 10 1.66667V3.33333H12.5C12.9602 3.33333 13.3333 3.70643 13.3333 4.16667C13.3333 4.6269 12.9602 5 12.5 5V15C12.5 15.442 12.3244 15.8659 12.0118 16.1785C11.6993 16.4911 11.2754 16.6667 10.8333 16.6667H2.5C2.05797 16.6667 1.63405 16.4911 1.32149 16.1785C1.00893 15.866 0.833333 15.442 0.833333 15V5C0.373096 5 0 4.6269 0 4.16667C0 3.70643 0.373096 3.33333 0.833333 3.33333H3.33333V1.66667C3.33333 1.22464 3.50893 0.800716 3.82149 0.488155ZM5 3.33333H8.33333V1.66667H5V3.33333ZM2.5 5V15H10.8333V5H2.5ZM5 5.83333C5.46024 5.83333 5.83333 6.20643 5.83333 6.66667V13.3333C5.83333 13.7936 5.46024 14.1667 5 14.1667C4.53976 14.1667 4.16667 13.7936 4.16667 13.3333V6.66667C4.16667 6.20643 4.53976 5.83333 5 5.83333ZM8.33333 5.83333C8.79357 5.83333 9.16667 6.20643 9.16667 6.66667V13.3333C9.16667 13.7936 8.79357 14.1667 8.33333 14.1667C7.8731 14.1667 7.5 13.7936 7.5 13.3333V6.66667C7.5 6.20643 7.8731 5.83333 8.33333 5.83333Z" fill="#4A5565"/>
</svg>
