<svg width="90" height="30" viewBox="0 0 90 30" fill="none" xmlns="http://www.w3.org/2000/svg">
<g filter="url(#filter0_d_194_173)">
<path d="M1 6C1 2.68629 3.68629 0 7 0H83C86.3137 0 89 2.68629 89 6V22C89 25.3137 86.3137 28 83 28H7C3.68629 28 1 25.3137 1 22V6Z" fill="white" shape-rendering="crispEdges"/>
<path d="M7 0.5H83C86.0376 0.5 88.5 2.96243 88.5 6V22C88.5 25.0376 86.0376 27.5 83 27.5H7C3.96243 27.5 1.5 25.0376 1.5 22V6C1.5 2.96243 3.96243 0.5 7 0.5Z" stroke="#E5E7EB" shape-rendering="crispEdges"/>
<path d="M15.552 16.668H25.488V17.7H15.552V16.668ZM19.872 14.436H21.132V17.088H19.872V14.436ZM16.728 8.784H24.312V12.264H17.988V14.292H16.752V11.268H23.064V9.804H16.728V8.784ZM16.752 13.788H24.564V14.796H16.752V13.788ZM27.7071 9.12H34.7031V10.128H27.7071V9.12ZM26.6511 16.428H36.5631V17.46H26.6511V16.428ZM34.0431 9.12H35.2911V10.308C35.2911 10.788 35.2831 11.292 35.2671 11.82C35.2591 12.34 35.2271 12.912 35.1711 13.536C35.1151 14.152 35.0191 14.848 34.8831 15.624L33.6231 15.504C33.7671 14.776 33.8671 14.108 33.9231 13.5C33.9791 12.892 34.0111 12.324 34.0191 11.796C34.0351 11.268 34.0431 10.772 34.0431 10.308V9.12ZM40.6781 8.82C41.2221 8.82 41.7021 8.98 42.1181 9.3C42.5421 9.62 42.8741 10.068 43.1141 10.644C43.3621 11.22 43.4861 11.904 43.4861 12.696C43.4861 13.48 43.3621 14.164 43.1141 14.748C42.8741 15.324 42.5421 15.772 42.1181 16.092C41.7021 16.404 41.2221 16.56 40.6781 16.56C40.1261 16.56 39.6381 16.404 39.2141 16.092C38.7981 15.772 38.4661 15.324 38.2181 14.748C37.9781 14.164 37.8581 13.48 37.8581 12.696C37.8581 11.904 37.9781 11.22 38.2181 10.644C38.4661 10.068 38.7981 9.62 39.2141 9.3C39.6381 8.98 40.1261 8.82 40.6781 8.82ZM40.6781 9.96C40.3581 9.96 40.0741 10.068 39.8261 10.284C39.5861 10.5 39.3981 10.812 39.2621 11.22C39.1341 11.628 39.0701 12.116 39.0701 12.684C39.0701 13.26 39.1341 13.752 39.2621 14.16C39.3981 14.568 39.5861 14.884 39.8261 15.108C40.0741 15.324 40.3581 15.432 40.6781 15.432C40.9901 15.432 41.2661 15.324 41.5061 15.108C41.7541 14.884 41.9421 14.568 42.0701 14.16C42.2061 13.752 42.2741 13.26 42.2741 12.684C42.2741 12.116 42.2061 11.628 42.0701 11.22C41.9421 10.812 41.7541 10.5 41.5061 10.284C41.2661 10.068 40.9901 9.96 40.6781 9.96ZM44.9861 8.028H46.2461V18.996H44.9861V8.028ZM45.9701 12.3H47.9501V13.344H45.9701V12.3ZM48.8492 12.948H58.7732V13.968H48.8492V12.948ZM53.1572 13.392H54.4052V15.084H53.1572V13.392ZM53.1332 15.564H54.2132V15.84C54.2132 16.248 54.1092 16.628 53.9012 16.98C53.6932 17.332 53.3972 17.644 53.0132 17.916C52.6372 18.188 52.1852 18.412 51.6572 18.588C51.1372 18.764 50.5652 18.884 49.9412 18.948L49.5332 18C50.0692 17.944 50.5572 17.852 50.9972 17.724C51.4452 17.588 51.8252 17.424 52.1372 17.232C52.4572 17.032 52.7012 16.816 52.8692 16.584C53.0452 16.344 53.1332 16.096 53.1332 15.84V15.564ZM53.3492 15.564H54.4292V15.84C54.4292 16.104 54.5132 16.356 54.6812 16.596C54.8492 16.836 55.0892 17.052 55.4012 17.244C55.7212 17.436 56.1012 17.596 56.5412 17.724C56.9892 17.852 57.4852 17.944 58.0292 18L57.6212 18.948C56.9972 18.884 56.4252 18.764 55.9052 18.588C55.3852 18.412 54.9332 18.192 54.5492 17.928C54.1652 17.664 53.8692 17.356 53.6612 17.004C53.4532 16.652 53.3492 16.264 53.3492 15.84V15.564ZM53.8052 8.16C54.6052 8.16 55.2972 8.24 55.8812 8.4C56.4652 8.56 56.9132 8.792 57.2252 9.096C57.5452 9.4 57.7052 9.768 57.7052 10.2C57.7052 10.632 57.5452 11 57.2252 11.304C56.9132 11.608 56.4652 11.84 55.8812 12C55.2972 12.16 54.6052 12.24 53.8052 12.24C53.0052 12.24 52.3092 12.16 51.7172 12C51.1332 11.84 50.6812 11.608 50.3612 11.304C50.0492 11 49.8932 10.632 49.8932 10.2C49.8932 9.768 50.0492 9.4 50.3612 9.096C50.6812 8.792 51.1332 8.56 51.7172 8.4C52.3092 8.24 53.0052 8.16 53.8052 8.16ZM53.8052 9.12C53.2532 9.12 52.7812 9.164 52.3892 9.252C52.0052 9.332 51.7092 9.452 51.5012 9.612C51.2932 9.772 51.1892 9.968 51.1892 10.2C51.1892 10.432 51.2932 10.628 51.5012 10.788C51.7092 10.948 52.0052 11.072 52.3892 11.16C52.7812 11.24 53.2532 11.28 53.8052 11.28C54.3492 11.28 54.8132 11.24 55.1972 11.16C55.5892 11.072 55.8892 10.948 56.0972 10.788C56.3052 10.628 56.4092 10.432 56.4092 10.2C56.4092 9.968 56.3052 9.772 56.0972 9.612C55.8892 9.452 55.5892 9.332 55.1972 9.252C54.8132 9.164 54.3492 9.12 53.8052 9.12Z" fill="#1F2937"/>
<path d="M72.25 19.25H69.9167C69.6072 19.25 69.3105 19.1271 69.0917 18.9083C68.8729 18.6895 68.75 18.3928 68.75 18.0833V9.91667C68.75 9.60725 68.8729 9.3105 69.0917 9.09171C69.3105 8.87292 69.6072 8.75 69.9167 8.75H72.25" stroke="#1F2937" stroke-linecap="round" stroke-linejoin="round"/>
<path d="M76.3334 16.9167L79.25 14L76.3334 11.0833" stroke="black" stroke-linecap="round" stroke-linejoin="round"/>
<path d="M79.25 14H72.25" stroke="black" stroke-linecap="round" stroke-linejoin="round"/>
</g>
<defs>
<filter id="filter0_d_194_173" x="0" y="0" width="90" height="30" filterUnits="userSpaceOnUse" color-interpolation-filters="sRGB">
<feFlood flood-opacity="0" result="BackgroundImageFix"/>
<feColorMatrix in="SourceAlpha" type="matrix" values="0 0 0 0 0 0 0 0 0 0 0 0 0 0 0 0 0 0 127 0" result="hardAlpha"/>
<feOffset dy="1"/>
<feGaussianBlur stdDeviation="0.5"/>
<feComposite in2="hardAlpha" operator="out"/>
<feColorMatrix type="matrix" values="0 0 0 0 0 0 0 0 0 0 0 0 0 0 0 0 0 0 0.05 0"/>
<feBlend mode="normal" in2="BackgroundImageFix" result="effect1_dropShadow_194_173"/>
<feBlend mode="normal" in="SourceGraphic" in2="effect1_dropShadow_194_173" result="shape"/>
</filter>
</defs>
</svg>
