<svg width="20" height="20" viewBox="0 0 20 20" fill="none" xmlns="http://www.w3.org/2000/svg">
<path fill-rule="evenodd" clip-rule="evenodd" d="M10 2C5.58172 2 2 5.58172 2 10C2 12.295 2.96641 14.3643 4.51449 15.8232C4.79829 15.2339 5.19756 14.7013 5.69442 14.2597C6.60485 13.4504 7.77998 13.0023 8.99809 13L9 13L11.0019 13C12.22 13.0023 13.3952 13.4504 14.3056 14.2597C14.8024 14.7013 15.2017 15.2339 15.4855 15.8232C17.0336 14.3643 18 12.295 18 10C18 5.58172 14.4183 2 10 2ZM10.9821 19.9524C16.044 19.459 20 15.1915 20 10C20 4.47715 15.5228 0 10 0C4.47715 0 0 4.47715 0 10C0 15.1915 3.95601 19.459 9.01792 19.9524C9.34331 19.9843 9.67105 20.0003 10 20M9.9989 18C9.99927 18 9.99963 18 10 18C10.0004 18 10.0007 18 10.0011 18C10.3335 18 10.6611 17.9796 10.9829 17.9402C11.9771 17.8176 12.9402 17.5079 13.8208 17.0267C13.6556 16.54 13.3663 16.1006 12.9769 15.7545C12.4318 15.27 11.7283 15.0016 10.999 15H9.00098C8.27172 15.0016 7.56823 15.27 7.02315 15.7545C6.63374 16.1006 6.34441 16.54 6.17916 17.0267C7.0598 17.5079 8.02293 17.8176 9.0171 17.9402C9.33885 17.9796 9.66651 18 9.9989 18ZM10 20C10.329 20.0003 10.6567 19.9843 10.9821 19.9524ZM10 6C8.89543 6 8 6.89543 8 8C8 9.10457 8.89543 10 10 10C11.1046 10 12 9.10457 12 8C12 6.89543 11.1046 6 10 6ZM6 8C6 5.79086 7.79086 4 10 4C12.2091 4 14 5.79086 14 8C14 10.2091 12.2091 12 10 12C7.79086 12 6 10.2091 6 8Z" fill="#101828"/>
</svg>
